<svg width="116" height="52" viewBox="0 0 116 52" fill="none" xmlns="../../../../../external.html?link=http://www.w3.org/2000/svg">
<path d="M45.1606 3.9075V52L37.3455 47.4913V10.2196L45.1606 3.9075Z" fill="white"/>
<path d="M37.3455 0L45.1606 3.90751L29.8311 16.2312V24.0462L23.5189 20.7399L16.6056 25.8497L22.6172 29.4566L15.1028 35.4682L0.97559 27.6532L37.3455 0Z" fill="white"/>
<path d="M29.5305 34.2659V43.2832L22.9178 39.6763L29.5305 34.2659Z" fill="white"/>
<path d="M60.9025 38.5332C58.3465 38.5332 56.3745 37.8815 54.9864 36.5781C53.5984 35.2578 52.9044 33.4128 52.9044 31.043C52.9044 28.6562 53.8439 26.8027 55.7228 25.4824C57.6017 24.1621 60.2677 23.502 63.7208 23.502H68.0372V21.3184C68.0372 20.015 67.6564 18.9993 66.8946 18.2715C66.1329 17.5436 65.075 17.1797 63.7208 17.1797C62.3836 17.1797 61.3341 17.4844 60.5724 18.0938C59.8276 18.6862 59.4552 19.4733 59.4552 20.4551H54.0978L54.0724 20.3281C53.9708 18.3138 54.8595 16.5703 56.7384 15.0977C58.6173 13.6081 61.0294 12.8633 63.9747 12.8633C66.92 12.8633 69.256 13.6081 70.9825 15.0977C72.7091 16.5703 73.5724 18.6608 73.5724 21.3691V32.3633C73.5724 34.3945 73.8686 36.2904 74.461 38.0508L68.8243 38.0762C68.4181 36.7897 68.1642 35.5794 68.0626 34.4453C67.2501 35.6641 66.226 36.6543 64.9903 37.416C63.7547 38.1608 62.392 38.5332 60.9025 38.5332ZM58.4396 30.9922H58.465C58.465 31.957 58.7696 32.7103 59.379 33.252C60.0053 33.7936 60.9448 34.0645 62.1974 34.0645C63.45 34.0645 64.6349 33.7259 65.7521 33.0488C66.8692 32.3717 67.6225 31.5677 68.0118 30.6367V26.9805H63.5939C62.0366 26.9805 60.784 27.3698 59.836 28.1484C58.9051 28.9102 58.4396 29.8581 58.4396 30.9922ZM91.9552 12.8125C94.5958 12.8125 96.6186 13.6081 98.0235 15.1992C99.4454 16.7904 100.156 19.2109 100.156 22.4609V38H94.5958V22.5117C94.5958 20.6667 94.215 19.3464 93.4532 18.5508C92.7084 17.7552 91.532 17.3574 89.9239 17.3574C87.7911 17.3574 86.1238 18.2546 84.922 20.0488V38H79.3614V13.2695L84.4396 13.2949L84.7696 16.875C86.4793 14.1667 88.8745 12.8125 91.9552 12.8125Z" fill="white"/>
</svg>
