<svg width="101" height="191" viewBox="0 0 101 191" fill="none" xmlns="../../../../../external.html?link=http://www.w3.org/2000/svg">
<g opacity="0.3">
<path d="M90.6313 185.498C90.6313 182.737 92.8699 180.498 95.6313 180.498C98.3928 180.498 100.631 182.737 100.631 185.498C100.631 188.259 98.3928 190.498 95.6313 190.498C92.8699 190.498 90.6313 188.259 90.6313 185.498Z" fill="white"/>
<path d="M60.6313 185.498C60.6313 182.737 62.8699 180.498 65.6313 180.498C68.3928 180.498 70.6313 182.737 70.6313 185.498C70.6313 188.259 68.3928 190.498 65.6313 190.498C62.8699 190.498 60.6313 188.259 60.6313 185.498Z" fill="white"/>
<path d="M30.6313 185.498C30.6313 182.737 32.8699 180.498 35.6313 180.498C38.3928 180.498 40.6313 182.737 40.6313 185.498C40.6313 188.259 38.3928 190.498 35.6313 190.498C32.8699 190.498 30.6313 188.259 30.6313 185.498Z" fill="white"/>
<path d="M0.631348 185.498C0.631348 182.737 2.86993 180.498 5.63135 180.498C8.39277 180.498 10.6313 182.737 10.6313 185.498C10.6313 188.259 8.39277 190.498 5.63135 190.498C2.86993 190.498 0.631348 188.259 0.631348 185.498Z" fill="white"/>
<path d="M90.6313 155.498C90.6313 152.737 92.8699 150.498 95.6313 150.498C98.3928 150.498 100.631 152.737 100.631 155.498C100.631 158.259 98.3928 160.498 95.6313 160.498C92.8699 160.498 90.6313 158.259 90.6313 155.498Z" fill="white"/>
<path d="M60.6313 155.498C60.6313 152.737 62.8699 150.498 65.6313 150.498C68.3928 150.498 70.6313 152.737 70.6313 155.498C70.6313 158.259 68.3928 160.498 65.6313 160.498C62.8699 160.498 60.6313 158.259 60.6313 155.498Z" fill="white"/>
<path d="M30.6313 155.498C30.6313 152.737 32.8699 150.498 35.6313 150.498C38.3928 150.498 40.6313 152.737 40.6313 155.498C40.6313 158.259 38.3928 160.498 35.6313 160.498C32.8699 160.498 30.6313 158.259 30.6313 155.498Z" fill="white"/>
<path d="M0.631348 155.498C0.631348 152.737 2.86993 150.498 5.63135 150.498C8.39277 150.498 10.6313 152.737 10.6313 155.498C10.6313 158.259 8.39277 160.498 5.63135 160.498C2.86993 160.498 0.631348 158.259 0.631348 155.498Z" fill="white"/>
<path d="M90.6313 125.498C90.6313 122.737 92.8699 120.498 95.6313 120.498C98.3928 120.498 100.631 122.737 100.631 125.498C100.631 128.259 98.3928 130.498 95.6313 130.498C92.8699 130.498 90.6313 128.259 90.6313 125.498Z" fill="white"/>
<path d="M60.6313 125.498C60.6313 122.737 62.8699 120.498 65.6313 120.498C68.3928 120.498 70.6313 122.737 70.6313 125.498C70.6313 128.259 68.3928 130.498 65.6313 130.498C62.8699 130.498 60.6313 128.259 60.6313 125.498Z" fill="white"/>
<path d="M30.6313 125.498C30.6313 122.737 32.8699 120.498 35.6313 120.498C38.3928 120.498 40.6313 122.737 40.6313 125.498C40.6313 128.259 38.3928 130.498 35.6313 130.498C32.8699 130.498 30.6313 128.259 30.6313 125.498Z" fill="white"/>
<path d="M0.631348 125.498C0.631348 122.737 2.86993 120.498 5.63135 120.498C8.39277 120.498 10.6313 122.737 10.6313 125.498C10.6313 128.259 8.39277 130.498 5.63135 130.498C2.86993 130.498 0.631348 128.259 0.631348 125.498Z" fill="white"/>
<path d="M90.6313 95.498C90.6313 92.7366 92.8699 90.498 95.6313 90.498C98.3928 90.498 100.631 92.7366 100.631 95.498C100.631 98.2595 98.3928 100.498 95.6313 100.498C92.8699 100.498 90.6313 98.2595 90.6313 95.498Z" fill="white"/>
<path d="M60.6313 95.498C60.6313 92.7366 62.8699 90.498 65.6313 90.498C68.3928 90.498 70.6313 92.7366 70.6313 95.498C70.6313 98.2595 68.3928 100.498 65.6313 100.498C62.8699 100.498 60.6313 98.2595 60.6313 95.498Z" fill="white"/>
<path d="M30.6313 95.498C30.6313 92.7366 32.8699 90.498 35.6313 90.498C38.3928 90.498 40.6313 92.7366 40.6313 95.498C40.6313 98.2595 38.3928 100.498 35.6313 100.498C32.8699 100.498 30.6313 98.2595 30.6313 95.498Z" fill="white"/>
<path d="M0.631348 95.498C0.631348 92.7366 2.86993 90.498 5.63135 90.498C8.39277 90.498 10.6313 92.7366 10.6313 95.498C10.6313 98.2595 8.39277 100.498 5.63135 100.498C2.86993 100.498 0.631348 98.2595 0.631348 95.498Z" fill="white"/>
<path d="M90.6313 65.498C90.6313 62.7366 92.8699 60.498 95.6313 60.498C98.3928 60.498 100.631 62.7366 100.631 65.498C100.631 68.2595 98.3928 70.498 95.6313 70.498C92.8699 70.498 90.6313 68.2595 90.6313 65.498Z" fill="white"/>
<path d="M60.6313 65.498C60.6313 62.7366 62.8699 60.498 65.6313 60.498C68.3928 60.498 70.6313 62.7366 70.6313 65.498C70.6313 68.2595 68.3928 70.498 65.6313 70.498C62.8699 70.498 60.6313 68.2595 60.6313 65.498Z" fill="white"/>
<path d="M30.6313 65.498C30.6313 62.7366 32.8699 60.498 35.6313 60.498C38.3928 60.498 40.6313 62.7366 40.6313 65.498C40.6313 68.2595 38.3928 70.498 35.6313 70.498C32.8699 70.498 30.6313 68.2595 30.6313 65.498Z" fill="white"/>
<path d="M0.631348 65.498C0.631348 62.7366 2.86993 60.498 5.63135 60.498C8.39277 60.498 10.6313 62.7366 10.6313 65.498C10.6313 68.2595 8.39277 70.498 5.63135 70.498C2.86993 70.498 0.631348 68.2595 0.631348 65.498Z" fill="white"/>
<path d="M90.6313 35.498C90.6313 32.7366 92.8699 30.498 95.6313 30.498C98.3928 30.498 100.631 32.7366 100.631 35.498C100.631 38.2595 98.3928 40.498 95.6313 40.498C92.8699 40.498 90.6313 38.2595 90.6313 35.498Z" fill="white"/>
<path d="M60.6313 35.498C60.6313 32.7366 62.8699 30.498 65.6313 30.498C68.3928 30.498 70.6313 32.7366 70.6313 35.498C70.6313 38.2595 68.3928 40.498 65.6313 40.498C62.8699 40.498 60.6313 38.2595 60.6313 35.498Z" fill="white"/>
<path d="M30.6313 35.498C30.6313 32.7366 32.8699 30.498 35.6313 30.498C38.3928 30.498 40.6313 32.7366 40.6313 35.498C40.6313 38.2595 38.3928 40.498 35.6313 40.498C32.8699 40.498 30.6313 38.2595 30.6313 35.498Z" fill="white"/>
<path d="M0.631348 35.498C0.631348 32.7366 2.86993 30.498 5.63135 30.498C8.39277 30.498 10.6313 32.7366 10.6313 35.498C10.6313 38.2595 8.39277 40.498 5.63135 40.498C2.86993 40.498 0.631348 38.2595 0.631348 35.498Z" fill="white"/>
<path d="M90.6313 5.49805C90.6313 2.73662 92.8699 0.498047 95.6313 0.498047C98.3928 0.498047 100.631 2.73662 100.631 5.49805C100.631 8.25948 98.3928 10.498 95.6313 10.498C92.8699 10.498 90.6313 8.25948 90.6313 5.49805Z" fill="white"/>
<path d="M60.6313 5.49805C60.6313 2.73662 62.8699 0.498047 65.6313 0.498047C68.3928 0.498047 70.6313 2.73662 70.6313 5.49805C70.6313 8.25948 68.3928 10.498 65.6313 10.498C62.8699 10.498 60.6313 8.25948 60.6313 5.49805Z" fill="white"/>
<path d="M30.6313 5.49805C30.6313 2.73662 32.8699 0.498047 35.6313 0.498047C38.3928 0.498047 40.6313 2.73662 40.6313 5.49805C40.6313 8.25948 38.3928 10.498 35.6313 10.498C32.8699 10.498 30.6313 8.25948 30.6313 5.49805Z" fill="white"/>
<path d="M0.631348 5.49805C0.631348 2.73662 2.86993 0.498047 5.63135 0.498047C8.39277 0.498047 10.6313 2.73662 10.6313 5.49805C10.6313 8.25948 8.39277 10.498 5.63135 10.498C2.86993 10.498 0.631348 8.25948 0.631348 5.49805Z" fill="white"/>
</g>
</svg>
