<svg width="101" height="191" viewBox="0 0 101 191" fill="none" xmlns="../../../../../external.html?link=http://www.w3.org/2000/svg">
<path d="M90.6312 185.498C90.6312 182.737 92.8698 180.498 95.6312 180.498C98.3926 180.498 100.631 182.737 100.631 185.498C100.631 188.259 98.3926 190.498 95.6312 190.498C92.8698 190.498 90.6312 188.259 90.6312 185.498Z" fill="url(#paint0_linear_4080_71)"/>
<path d="M60.6312 185.498C60.6312 182.737 62.8698 180.498 65.6312 180.498C68.3927 180.498 70.6312 182.737 70.6312 185.498C70.6312 188.259 68.3927 190.498 65.6312 190.498C62.8698 190.498 60.6312 188.259 60.6312 185.498Z" fill="url(#paint1_linear_4080_71)"/>
<path d="M30.6312 185.498C30.6312 182.737 32.8698 180.498 35.6312 180.498C38.3927 180.498 40.6312 182.737 40.6312 185.498C40.6312 188.259 38.3927 190.498 35.6312 190.498C32.8698 190.498 30.6312 188.259 30.6312 185.498Z" fill="url(#paint2_linear_4080_71)"/>
<path d="M0.631226 185.498C0.631226 182.737 2.8698 180.498 5.63123 180.498C8.39265 180.498 10.6312 182.737 10.6312 185.498C10.6312 188.259 8.39265 190.498 5.63123 190.498C2.8698 190.498 0.631226 188.259 0.631226 185.498Z" fill="url(#paint3_linear_4080_71)"/>
<path d="M90.6312 155.498C90.6312 152.737 92.8698 150.498 95.6312 150.498C98.3926 150.498 100.631 152.737 100.631 155.498C100.631 158.259 98.3926 160.498 95.6312 160.498C92.8698 160.498 90.6312 158.259 90.6312 155.498Z" fill="url(#paint4_linear_4080_71)"/>
<path d="M60.6312 155.498C60.6312 152.737 62.8698 150.498 65.6312 150.498C68.3927 150.498 70.6312 152.737 70.6312 155.498C70.6312 158.259 68.3927 160.498 65.6312 160.498C62.8698 160.498 60.6312 158.259 60.6312 155.498Z" fill="url(#paint5_linear_4080_71)"/>
<path d="M30.6312 155.498C30.6312 152.737 32.8698 150.498 35.6312 150.498C38.3927 150.498 40.6312 152.737 40.6312 155.498C40.6312 158.259 38.3927 160.498 35.6312 160.498C32.8698 160.498 30.6312 158.259 30.6312 155.498Z" fill="url(#paint6_linear_4080_71)"/>
<path d="M0.631226 155.498C0.631226 152.737 2.8698 150.498 5.63123 150.498C8.39265 150.498 10.6312 152.737 10.6312 155.498C10.6312 158.259 8.39265 160.498 5.63123 160.498C2.8698 160.498 0.631226 158.259 0.631226 155.498Z" fill="url(#paint7_linear_4080_71)"/>
<path d="M90.6312 125.498C90.6312 122.737 92.8698 120.498 95.6312 120.498C98.3926 120.498 100.631 122.737 100.631 125.498C100.631 128.259 98.3926 130.498 95.6312 130.498C92.8698 130.498 90.6312 128.259 90.6312 125.498Z" fill="url(#paint8_linear_4080_71)"/>
<path d="M60.6312 125.498C60.6312 122.737 62.8698 120.498 65.6312 120.498C68.3927 120.498 70.6312 122.737 70.6312 125.498C70.6312 128.259 68.3927 130.498 65.6312 130.498C62.8698 130.498 60.6312 128.259 60.6312 125.498Z" fill="url(#paint9_linear_4080_71)"/>
<path d="M30.6312 125.498C30.6312 122.737 32.8698 120.498 35.6312 120.498C38.3927 120.498 40.6312 122.737 40.6312 125.498C40.6312 128.259 38.3927 130.498 35.6312 130.498C32.8698 130.498 30.6312 128.259 30.6312 125.498Z" fill="url(#paint10_linear_4080_71)"/>
<path d="M0.631226 125.498C0.631226 122.737 2.8698 120.498 5.63123 120.498C8.39265 120.498 10.6312 122.737 10.6312 125.498C10.6312 128.259 8.39265 130.498 5.63123 130.498C2.8698 130.498 0.631226 128.259 0.631226 125.498Z" fill="url(#paint11_linear_4080_71)"/>
<path d="M90.6312 95.498C90.6312 92.7366 92.8698 90.498 95.6312 90.498C98.3926 90.498 100.631 92.7366 100.631 95.498C100.631 98.2595 98.3926 100.498 95.6312 100.498C92.8698 100.498 90.6312 98.2595 90.6312 95.498Z" fill="url(#paint12_linear_4080_71)"/>
<path d="M60.6312 95.498C60.6312 92.7366 62.8698 90.498 65.6312 90.498C68.3927 90.498 70.6312 92.7366 70.6312 95.498C70.6312 98.2595 68.3927 100.498 65.6312 100.498C62.8698 100.498 60.6312 98.2595 60.6312 95.498Z" fill="url(#paint13_linear_4080_71)"/>
<path d="M30.6312 95.498C30.6312 92.7366 32.8698 90.498 35.6312 90.498C38.3927 90.498 40.6312 92.7366 40.6312 95.498C40.6312 98.2595 38.3927 100.498 35.6312 100.498C32.8698 100.498 30.6312 98.2595 30.6312 95.498Z" fill="url(#paint14_linear_4080_71)"/>
<path d="M0.631226 95.498C0.631226 92.7366 2.8698 90.498 5.63123 90.498C8.39265 90.498 10.6312 92.7366 10.6312 95.498C10.6312 98.2595 8.39265 100.498 5.63123 100.498C2.8698 100.498 0.631226 98.2595 0.631226 95.498Z" fill="url(#paint15_linear_4080_71)"/>
<path d="M90.6312 65.498C90.6312 62.7366 92.8698 60.498 95.6312 60.498C98.3926 60.498 100.631 62.7366 100.631 65.498C100.631 68.2595 98.3926 70.498 95.6312 70.498C92.8698 70.498 90.6312 68.2595 90.6312 65.498Z" fill="url(#paint16_linear_4080_71)"/>
<path d="M60.6312 65.498C60.6312 62.7366 62.8698 60.498 65.6312 60.498C68.3927 60.498 70.6312 62.7366 70.6312 65.498C70.6312 68.2595 68.3927 70.498 65.6312 70.498C62.8698 70.498 60.6312 68.2595 60.6312 65.498Z" fill="url(#paint17_linear_4080_71)"/>
<path d="M30.6312 65.498C30.6312 62.7366 32.8698 60.498 35.6312 60.498C38.3927 60.498 40.6312 62.7366 40.6312 65.498C40.6312 68.2595 38.3927 70.498 35.6312 70.498C32.8698 70.498 30.6312 68.2595 30.6312 65.498Z" fill="url(#paint18_linear_4080_71)"/>
<path d="M0.631226 65.498C0.631226 62.7366 2.8698 60.498 5.63123 60.498C8.39265 60.498 10.6312 62.7366 10.6312 65.498C10.6312 68.2595 8.39265 70.498 5.63123 70.498C2.8698 70.498 0.631226 68.2595 0.631226 65.498Z" fill="url(#paint19_linear_4080_71)"/>
<path d="M90.6312 35.498C90.6312 32.7366 92.8698 30.498 95.6312 30.498C98.3926 30.498 100.631 32.7366 100.631 35.498C100.631 38.2595 98.3926 40.498 95.6312 40.498C92.8698 40.498 90.6312 38.2595 90.6312 35.498Z" fill="url(#paint20_linear_4080_71)"/>
<path d="M60.6312 35.498C60.6312 32.7366 62.8698 30.498 65.6312 30.498C68.3927 30.498 70.6312 32.7366 70.6312 35.498C70.6312 38.2595 68.3927 40.498 65.6312 40.498C62.8698 40.498 60.6312 38.2595 60.6312 35.498Z" fill="url(#paint21_linear_4080_71)"/>
<path d="M30.6312 35.498C30.6312 32.7366 32.8698 30.498 35.6312 30.498C38.3927 30.498 40.6312 32.7366 40.6312 35.498C40.6312 38.2595 38.3927 40.498 35.6312 40.498C32.8698 40.498 30.6312 38.2595 30.6312 35.498Z" fill="url(#paint22_linear_4080_71)"/>
<path d="M0.631226 35.498C0.631226 32.7366 2.8698 30.498 5.63123 30.498C8.39265 30.498 10.6312 32.7366 10.6312 35.498C10.6312 38.2595 8.39265 40.498 5.63123 40.498C2.8698 40.498 0.631226 38.2595 0.631226 35.498Z" fill="url(#paint23_linear_4080_71)"/>
<path d="M90.6312 5.49805C90.6312 2.73662 92.8698 0.498047 95.6312 0.498047C98.3926 0.498047 100.631 2.73662 100.631 5.49805C100.631 8.25948 98.3926 10.498 95.6312 10.498C92.8698 10.498 90.6312 8.25948 90.6312 5.49805Z" fill="url(#paint24_linear_4080_71)"/>
<path d="M60.6312 5.49805C60.6312 2.73662 62.8698 0.498047 65.6312 0.498047C68.3927 0.498047 70.6312 2.73662 70.6312 5.49805C70.6312 8.25948 68.3927 10.498 65.6312 10.498C62.8698 10.498 60.6312 8.25948 60.6312 5.49805Z" fill="url(#paint25_linear_4080_71)"/>
<path d="M30.6312 5.49805C30.6312 2.73662 32.8698 0.498047 35.6312 0.498047C38.3927 0.498047 40.6312 2.73662 40.6312 5.49805C40.6312 8.25948 38.3927 10.498 35.6312 10.498C32.8698 10.498 30.6312 8.25948 30.6312 5.49805Z" fill="url(#paint26_linear_4080_71)"/>
<path d="M0.631226 5.49805C0.631226 2.73662 2.8698 0.498047 5.63123 0.498047C8.39265 0.498047 10.6312 2.73662 10.6312 5.49805C10.6312 8.25948 8.39265 10.498 5.63123 10.498C2.8698 10.498 0.631226 8.25948 0.631226 5.49805Z" fill="url(#paint27_linear_4080_71)"/>
<defs>
<linearGradient id="paint0_linear_4080_71" x1="95.6312" y1="95.498" x2="13.1286" y2="127.608" gradientUnits="userSpaceOnUse">
<stop stop-color="#8E2DE2"/>
<stop offset="1" stop-color="#4A00E0"/>
</linearGradient>
<linearGradient id="paint1_linear_4080_71" x1="95.6312" y1="95.498" x2="13.1286" y2="127.608" gradientUnits="userSpaceOnUse">
<stop stop-color="#8E2DE2"/>
<stop offset="1" stop-color="#4A00E0"/>
</linearGradient>
<linearGradient id="paint2_linear_4080_71" x1="95.6312" y1="95.498" x2="13.1286" y2="127.608" gradientUnits="userSpaceOnUse">
<stop stop-color="#8E2DE2"/>
<stop offset="1" stop-color="#4A00E0"/>
</linearGradient>
<linearGradient id="paint3_linear_4080_71" x1="95.6312" y1="95.498" x2="13.1286" y2="127.608" gradientUnits="userSpaceOnUse">
<stop stop-color="#8E2DE2"/>
<stop offset="1" stop-color="#4A00E0"/>
</linearGradient>
<linearGradient id="paint4_linear_4080_71" x1="95.6312" y1="95.498" x2="13.1286" y2="127.608" gradientUnits="userSpaceOnUse">
<stop stop-color="#8E2DE2"/>
<stop offset="1" stop-color="#4A00E0"/>
</linearGradient>
<linearGradient id="paint5_linear_4080_71" x1="95.6312" y1="95.498" x2="13.1286" y2="127.608" gradientUnits="userSpaceOnUse">
<stop stop-color="#8E2DE2"/>
<stop offset="1" stop-color="#4A00E0"/>
</linearGradient>
<linearGradient id="paint6_linear_4080_71" x1="95.6312" y1="95.498" x2="13.1286" y2="127.608" gradientUnits="userSpaceOnUse">
<stop stop-color="#8E2DE2"/>
<stop offset="1" stop-color="#4A00E0"/>
</linearGradient>
<linearGradient id="paint7_linear_4080_71" x1="95.6312" y1="95.498" x2="13.1286" y2="127.608" gradientUnits="userSpaceOnUse">
<stop stop-color="#8E2DE2"/>
<stop offset="1" stop-color="#4A00E0"/>
</linearGradient>
<linearGradient id="paint8_linear_4080_71" x1="95.6312" y1="95.498" x2="13.1286" y2="127.608" gradientUnits="userSpaceOnUse">
<stop stop-color="#8E2DE2"/>
<stop offset="1" stop-color="#4A00E0"/>
</linearGradient>
<linearGradient id="paint9_linear_4080_71" x1="95.6312" y1="95.498" x2="13.1286" y2="127.608" gradientUnits="userSpaceOnUse">
<stop stop-color="#8E2DE2"/>
<stop offset="1" stop-color="#4A00E0"/>
</linearGradient>
<linearGradient id="paint10_linear_4080_71" x1="95.6312" y1="95.498" x2="13.1286" y2="127.608" gradientUnits="userSpaceOnUse">
<stop stop-color="#8E2DE2"/>
<stop offset="1" stop-color="#4A00E0"/>
</linearGradient>
<linearGradient id="paint11_linear_4080_71" x1="95.6312" y1="95.498" x2="13.1286" y2="127.608" gradientUnits="userSpaceOnUse">
<stop stop-color="#8E2DE2"/>
<stop offset="1" stop-color="#4A00E0"/>
</linearGradient>
<linearGradient id="paint12_linear_4080_71" x1="95.6312" y1="95.498" x2="13.1286" y2="127.608" gradientUnits="userSpaceOnUse">
<stop stop-color="#8E2DE2"/>
<stop offset="1" stop-color="#4A00E0"/>
</linearGradient>
<linearGradient id="paint13_linear_4080_71" x1="95.6312" y1="95.498" x2="13.1286" y2="127.608" gradientUnits="userSpaceOnUse">
<stop stop-color="#8E2DE2"/>
<stop offset="1" stop-color="#4A00E0"/>
</linearGradient>
<linearGradient id="paint14_linear_4080_71" x1="95.6312" y1="95.498" x2="13.1286" y2="127.608" gradientUnits="userSpaceOnUse">
<stop stop-color="#8E2DE2"/>
<stop offset="1" stop-color="#4A00E0"/>
</linearGradient>
<linearGradient id="paint15_linear_4080_71" x1="95.6312" y1="95.498" x2="13.1286" y2="127.608" gradientUnits="userSpaceOnUse">
<stop stop-color="#8E2DE2"/>
<stop offset="1" stop-color="#4A00E0"/>
</linearGradient>
<linearGradient id="paint16_linear_4080_71" x1="95.6312" y1="95.498" x2="13.1286" y2="127.608" gradientUnits="userSpaceOnUse">
<stop stop-color="#8E2DE2"/>
<stop offset="1" stop-color="#4A00E0"/>
</linearGradient>
<linearGradient id="paint17_linear_4080_71" x1="95.6312" y1="95.498" x2="13.1286" y2="127.608" gradientUnits="userSpaceOnUse">
<stop stop-color="#8E2DE2"/>
<stop offset="1" stop-color="#4A00E0"/>
</linearGradient>
<linearGradient id="paint18_linear_4080_71" x1="95.6312" y1="95.498" x2="13.1286" y2="127.608" gradientUnits="userSpaceOnUse">
<stop stop-color="#8E2DE2"/>
<stop offset="1" stop-color="#4A00E0"/>
</linearGradient>
<linearGradient id="paint19_linear_4080_71" x1="95.6312" y1="95.498" x2="13.1286" y2="127.608" gradientUnits="userSpaceOnUse">
<stop stop-color="#8E2DE2"/>
<stop offset="1" stop-color="#4A00E0"/>
</linearGradient>
<linearGradient id="paint20_linear_4080_71" x1="95.6312" y1="95.498" x2="13.1286" y2="127.608" gradientUnits="userSpaceOnUse">
<stop stop-color="#8E2DE2"/>
<stop offset="1" stop-color="#4A00E0"/>
</linearGradient>
<linearGradient id="paint21_linear_4080_71" x1="95.6312" y1="95.498" x2="13.1286" y2="127.608" gradientUnits="userSpaceOnUse">
<stop stop-color="#8E2DE2"/>
<stop offset="1" stop-color="#4A00E0"/>
</linearGradient>
<linearGradient id="paint22_linear_4080_71" x1="95.6312" y1="95.498" x2="13.1286" y2="127.608" gradientUnits="userSpaceOnUse">
<stop stop-color="#8E2DE2"/>
<stop offset="1" stop-color="#4A00E0"/>
</linearGradient>
<linearGradient id="paint23_linear_4080_71" x1="95.6312" y1="95.498" x2="13.1286" y2="127.608" gradientUnits="userSpaceOnUse">
<stop stop-color="#8E2DE2"/>
<stop offset="1" stop-color="#4A00E0"/>
</linearGradient>
<linearGradient id="paint24_linear_4080_71" x1="95.6312" y1="95.498" x2="13.1286" y2="127.608" gradientUnits="userSpaceOnUse">
<stop stop-color="#8E2DE2"/>
<stop offset="1" stop-color="#4A00E0"/>
</linearGradient>
<linearGradient id="paint25_linear_4080_71" x1="95.6312" y1="95.498" x2="13.1286" y2="127.608" gradientUnits="userSpaceOnUse">
<stop stop-color="#8E2DE2"/>
<stop offset="1" stop-color="#4A00E0"/>
</linearGradient>
<linearGradient id="paint26_linear_4080_71" x1="95.6312" y1="95.498" x2="13.1286" y2="127.608" gradientUnits="userSpaceOnUse">
<stop stop-color="#8E2DE2"/>
<stop offset="1" stop-color="#4A00E0"/>
</linearGradient>
<linearGradient id="paint27_linear_4080_71" x1="95.6312" y1="95.498" x2="13.1286" y2="127.608" gradientUnits="userSpaceOnUse">
<stop stop-color="#8E2DE2"/>
<stop offset="1" stop-color="#4A00E0"/>
</linearGradient>
</defs>
</svg>
