<svg width="101" height="191" viewBox="0 0 101 191" fill="none" xmlns="../../../../../external.html?link=http://www.w3.org/2000/svg">
<g opacity="0.3">
<path d="M90.6311 185.498C90.6311 182.737 92.8697 180.498 95.6311 180.498C98.3925 180.498 100.631 182.737 100.631 185.498C100.631 188.259 98.3925 190.498 95.6311 190.498C92.8697 190.498 90.6311 188.259 90.6311 185.498Z" fill="url(#paint0_linear_4080_76)"/>
<path d="M60.6311 185.498C60.6311 182.737 62.8697 180.498 65.6311 180.498C68.3925 180.498 70.6311 182.737 70.6311 185.498C70.6311 188.259 68.3925 190.498 65.6311 190.498C62.8697 190.498 60.6311 188.259 60.6311 185.498Z" fill="url(#paint1_linear_4080_76)"/>
<path d="M30.6311 185.498C30.6311 182.737 32.8697 180.498 35.6311 180.498C38.3925 180.498 40.6311 182.737 40.6311 185.498C40.6311 188.259 38.3925 190.498 35.6311 190.498C32.8697 190.498 30.6311 188.259 30.6311 185.498Z" fill="url(#paint2_linear_4080_76)"/>
<path d="M0.631104 185.498C0.631104 182.737 2.86968 180.498 5.6311 180.498C8.39252 180.498 10.6311 182.737 10.6311 185.498C10.6311 188.259 8.39252 190.498 5.6311 190.498C2.86968 190.498 0.631104 188.259 0.631104 185.498Z" fill="url(#paint3_linear_4080_76)"/>
<path d="M90.6311 155.498C90.6311 152.737 92.8697 150.498 95.6311 150.498C98.3925 150.498 100.631 152.737 100.631 155.498C100.631 158.259 98.3925 160.498 95.6311 160.498C92.8697 160.498 90.6311 158.259 90.6311 155.498Z" fill="url(#paint4_linear_4080_76)"/>
<path d="M60.6311 155.498C60.6311 152.737 62.8697 150.498 65.6311 150.498C68.3925 150.498 70.6311 152.737 70.6311 155.498C70.6311 158.259 68.3925 160.498 65.6311 160.498C62.8697 160.498 60.6311 158.259 60.6311 155.498Z" fill="url(#paint5_linear_4080_76)"/>
<path d="M30.6311 155.498C30.6311 152.737 32.8697 150.498 35.6311 150.498C38.3925 150.498 40.6311 152.737 40.6311 155.498C40.6311 158.259 38.3925 160.498 35.6311 160.498C32.8697 160.498 30.6311 158.259 30.6311 155.498Z" fill="url(#paint6_linear_4080_76)"/>
<path d="M0.631104 155.498C0.631104 152.737 2.86968 150.498 5.6311 150.498C8.39252 150.498 10.6311 152.737 10.6311 155.498C10.6311 158.259 8.39252 160.498 5.6311 160.498C2.86968 160.498 0.631104 158.259 0.631104 155.498Z" fill="url(#paint7_linear_4080_76)"/>
<path d="M90.6311 125.498C90.6311 122.737 92.8697 120.498 95.6311 120.498C98.3925 120.498 100.631 122.737 100.631 125.498C100.631 128.259 98.3925 130.498 95.6311 130.498C92.8697 130.498 90.6311 128.259 90.6311 125.498Z" fill="url(#paint8_linear_4080_76)"/>
<path d="M60.6311 125.498C60.6311 122.737 62.8697 120.498 65.6311 120.498C68.3925 120.498 70.6311 122.737 70.6311 125.498C70.6311 128.259 68.3925 130.498 65.6311 130.498C62.8697 130.498 60.6311 128.259 60.6311 125.498Z" fill="url(#paint9_linear_4080_76)"/>
<path d="M30.6311 125.498C30.6311 122.737 32.8697 120.498 35.6311 120.498C38.3925 120.498 40.6311 122.737 40.6311 125.498C40.6311 128.259 38.3925 130.498 35.6311 130.498C32.8697 130.498 30.6311 128.259 30.6311 125.498Z" fill="url(#paint10_linear_4080_76)"/>
<path d="M0.631104 125.498C0.631104 122.737 2.86968 120.498 5.6311 120.498C8.39252 120.498 10.6311 122.737 10.6311 125.498C10.6311 128.259 8.39252 130.498 5.6311 130.498C2.86968 130.498 0.631104 128.259 0.631104 125.498Z" fill="url(#paint11_linear_4080_76)"/>
<path d="M90.6311 95.498C90.6311 92.7366 92.8697 90.498 95.6311 90.498C98.3925 90.498 100.631 92.7366 100.631 95.498C100.631 98.2595 98.3925 100.498 95.6311 100.498C92.8697 100.498 90.6311 98.2595 90.6311 95.498Z" fill="url(#paint12_linear_4080_76)"/>
<path d="M60.6311 95.498C60.6311 92.7366 62.8697 90.498 65.6311 90.498C68.3925 90.498 70.6311 92.7366 70.6311 95.498C70.6311 98.2595 68.3925 100.498 65.6311 100.498C62.8697 100.498 60.6311 98.2595 60.6311 95.498Z" fill="url(#paint13_linear_4080_76)"/>
<path d="M30.6311 95.498C30.6311 92.7366 32.8697 90.498 35.6311 90.498C38.3925 90.498 40.6311 92.7366 40.6311 95.498C40.6311 98.2595 38.3925 100.498 35.6311 100.498C32.8697 100.498 30.6311 98.2595 30.6311 95.498Z" fill="url(#paint14_linear_4080_76)"/>
<path d="M0.631104 95.498C0.631104 92.7366 2.86968 90.498 5.6311 90.498C8.39252 90.498 10.6311 92.7366 10.6311 95.498C10.6311 98.2595 8.39252 100.498 5.6311 100.498C2.86968 100.498 0.631104 98.2595 0.631104 95.498Z" fill="url(#paint15_linear_4080_76)"/>
<path d="M90.6311 65.498C90.6311 62.7366 92.8697 60.498 95.6311 60.498C98.3925 60.498 100.631 62.7366 100.631 65.498C100.631 68.2595 98.3925 70.498 95.6311 70.498C92.8697 70.498 90.6311 68.2595 90.6311 65.498Z" fill="url(#paint16_linear_4080_76)"/>
<path d="M60.6311 65.498C60.6311 62.7366 62.8697 60.498 65.6311 60.498C68.3925 60.498 70.6311 62.7366 70.6311 65.498C70.6311 68.2595 68.3925 70.498 65.6311 70.498C62.8697 70.498 60.6311 68.2595 60.6311 65.498Z" fill="url(#paint17_linear_4080_76)"/>
<path d="M30.6311 65.498C30.6311 62.7366 32.8697 60.498 35.6311 60.498C38.3925 60.498 40.6311 62.7366 40.6311 65.498C40.6311 68.2595 38.3925 70.498 35.6311 70.498C32.8697 70.498 30.6311 68.2595 30.6311 65.498Z" fill="url(#paint18_linear_4080_76)"/>
<path d="M0.631104 65.498C0.631104 62.7366 2.86968 60.498 5.6311 60.498C8.39252 60.498 10.6311 62.7366 10.6311 65.498C10.6311 68.2595 8.39252 70.498 5.6311 70.498C2.86968 70.498 0.631104 68.2595 0.631104 65.498Z" fill="url(#paint19_linear_4080_76)"/>
<path d="M90.6311 35.498C90.6311 32.7366 92.8697 30.498 95.6311 30.498C98.3925 30.498 100.631 32.7366 100.631 35.498C100.631 38.2595 98.3925 40.498 95.6311 40.498C92.8697 40.498 90.6311 38.2595 90.6311 35.498Z" fill="url(#paint20_linear_4080_76)"/>
<path d="M60.6311 35.498C60.6311 32.7366 62.8697 30.498 65.6311 30.498C68.3925 30.498 70.6311 32.7366 70.6311 35.498C70.6311 38.2595 68.3925 40.498 65.6311 40.498C62.8697 40.498 60.6311 38.2595 60.6311 35.498Z" fill="url(#paint21_linear_4080_76)"/>
<path d="M30.6311 35.498C30.6311 32.7366 32.8697 30.498 35.6311 30.498C38.3925 30.498 40.6311 32.7366 40.6311 35.498C40.6311 38.2595 38.3925 40.498 35.6311 40.498C32.8697 40.498 30.6311 38.2595 30.6311 35.498Z" fill="url(#paint22_linear_4080_76)"/>
<path d="M0.631104 35.498C0.631104 32.7366 2.86968 30.498 5.6311 30.498C8.39252 30.498 10.6311 32.7366 10.6311 35.498C10.6311 38.2595 8.39252 40.498 5.6311 40.498C2.86968 40.498 0.631104 38.2595 0.631104 35.498Z" fill="url(#paint23_linear_4080_76)"/>
<path d="M90.6311 5.49805C90.6311 2.73662 92.8697 0.498047 95.6311 0.498047C98.3925 0.498047 100.631 2.73662 100.631 5.49805C100.631 8.25948 98.3925 10.498 95.6311 10.498C92.8697 10.498 90.6311 8.25948 90.6311 5.49805Z" fill="url(#paint24_linear_4080_76)"/>
<path d="M60.6311 5.49805C60.6311 2.73662 62.8697 0.498047 65.6311 0.498047C68.3925 0.498047 70.6311 2.73662 70.6311 5.49805C70.6311 8.25948 68.3925 10.498 65.6311 10.498C62.8697 10.498 60.6311 8.25948 60.6311 5.49805Z" fill="url(#paint25_linear_4080_76)"/>
<path d="M30.6311 5.49805C30.6311 2.73662 32.8697 0.498047 35.6311 0.498047C38.3925 0.498047 40.6311 2.73662 40.6311 5.49805C40.6311 8.25948 38.3925 10.498 35.6311 10.498C32.8697 10.498 30.6311 8.25948 30.6311 5.49805Z" fill="url(#paint26_linear_4080_76)"/>
<path d="M0.631104 5.49805C0.631104 2.73662 2.86968 0.498047 5.6311 0.498047C8.39252 0.498047 10.6311 2.73662 10.6311 5.49805C10.6311 8.25948 8.39252 10.498 5.6311 10.498C2.86968 10.498 0.631104 8.25948 0.631104 5.49805Z" fill="url(#paint27_linear_4080_76)"/>
</g>
<defs>
<linearGradient id="paint0_linear_4080_76" x1="95.6311" y1="95.498" x2="13.1284" y2="127.608" gradientUnits="userSpaceOnUse">
<stop stop-color="#DE6262"/>
<stop offset="1" stop-color="#FFB88C"/>
</linearGradient>
<linearGradient id="paint1_linear_4080_76" x1="95.6311" y1="95.498" x2="13.1284" y2="127.608" gradientUnits="userSpaceOnUse">
<stop stop-color="#DE6262"/>
<stop offset="1" stop-color="#FFB88C"/>
</linearGradient>
<linearGradient id="paint2_linear_4080_76" x1="95.6311" y1="95.498" x2="13.1284" y2="127.608" gradientUnits="userSpaceOnUse">
<stop stop-color="#DE6262"/>
<stop offset="1" stop-color="#FFB88C"/>
</linearGradient>
<linearGradient id="paint3_linear_4080_76" x1="95.6311" y1="95.498" x2="13.1284" y2="127.608" gradientUnits="userSpaceOnUse">
<stop stop-color="#DE6262"/>
<stop offset="1" stop-color="#FFB88C"/>
</linearGradient>
<linearGradient id="paint4_linear_4080_76" x1="95.6311" y1="95.498" x2="13.1284" y2="127.608" gradientUnits="userSpaceOnUse">
<stop stop-color="#DE6262"/>
<stop offset="1" stop-color="#FFB88C"/>
</linearGradient>
<linearGradient id="paint5_linear_4080_76" x1="95.6311" y1="95.498" x2="13.1284" y2="127.608" gradientUnits="userSpaceOnUse">
<stop stop-color="#DE6262"/>
<stop offset="1" stop-color="#FFB88C"/>
</linearGradient>
<linearGradient id="paint6_linear_4080_76" x1="95.6311" y1="95.498" x2="13.1284" y2="127.608" gradientUnits="userSpaceOnUse">
<stop stop-color="#DE6262"/>
<stop offset="1" stop-color="#FFB88C"/>
</linearGradient>
<linearGradient id="paint7_linear_4080_76" x1="95.6311" y1="95.498" x2="13.1284" y2="127.608" gradientUnits="userSpaceOnUse">
<stop stop-color="#DE6262"/>
<stop offset="1" stop-color="#FFB88C"/>
</linearGradient>
<linearGradient id="paint8_linear_4080_76" x1="95.6311" y1="95.498" x2="13.1284" y2="127.608" gradientUnits="userSpaceOnUse">
<stop stop-color="#DE6262"/>
<stop offset="1" stop-color="#FFB88C"/>
</linearGradient>
<linearGradient id="paint9_linear_4080_76" x1="95.6311" y1="95.498" x2="13.1284" y2="127.608" gradientUnits="userSpaceOnUse">
<stop stop-color="#DE6262"/>
<stop offset="1" stop-color="#FFB88C"/>
</linearGradient>
<linearGradient id="paint10_linear_4080_76" x1="95.6311" y1="95.498" x2="13.1284" y2="127.608" gradientUnits="userSpaceOnUse">
<stop stop-color="#DE6262"/>
<stop offset="1" stop-color="#FFB88C"/>
</linearGradient>
<linearGradient id="paint11_linear_4080_76" x1="95.6311" y1="95.498" x2="13.1284" y2="127.608" gradientUnits="userSpaceOnUse">
<stop stop-color="#DE6262"/>
<stop offset="1" stop-color="#FFB88C"/>
</linearGradient>
<linearGradient id="paint12_linear_4080_76" x1="95.6311" y1="95.498" x2="13.1284" y2="127.608" gradientUnits="userSpaceOnUse">
<stop stop-color="#DE6262"/>
<stop offset="1" stop-color="#FFB88C"/>
</linearGradient>
<linearGradient id="paint13_linear_4080_76" x1="95.6311" y1="95.498" x2="13.1284" y2="127.608" gradientUnits="userSpaceOnUse">
<stop stop-color="#DE6262"/>
<stop offset="1" stop-color="#FFB88C"/>
</linearGradient>
<linearGradient id="paint14_linear_4080_76" x1="95.6311" y1="95.498" x2="13.1284" y2="127.608" gradientUnits="userSpaceOnUse">
<stop stop-color="#DE6262"/>
<stop offset="1" stop-color="#FFB88C"/>
</linearGradient>
<linearGradient id="paint15_linear_4080_76" x1="95.6311" y1="95.498" x2="13.1284" y2="127.608" gradientUnits="userSpaceOnUse">
<stop stop-color="#DE6262"/>
<stop offset="1" stop-color="#FFB88C"/>
</linearGradient>
<linearGradient id="paint16_linear_4080_76" x1="95.6311" y1="95.498" x2="13.1284" y2="127.608" gradientUnits="userSpaceOnUse">
<stop stop-color="#DE6262"/>
<stop offset="1" stop-color="#FFB88C"/>
</linearGradient>
<linearGradient id="paint17_linear_4080_76" x1="95.6311" y1="95.498" x2="13.1284" y2="127.608" gradientUnits="userSpaceOnUse">
<stop stop-color="#DE6262"/>
<stop offset="1" stop-color="#FFB88C"/>
</linearGradient>
<linearGradient id="paint18_linear_4080_76" x1="95.6311" y1="95.498" x2="13.1284" y2="127.608" gradientUnits="userSpaceOnUse">
<stop stop-color="#DE6262"/>
<stop offset="1" stop-color="#FFB88C"/>
</linearGradient>
<linearGradient id="paint19_linear_4080_76" x1="95.6311" y1="95.498" x2="13.1284" y2="127.608" gradientUnits="userSpaceOnUse">
<stop stop-color="#DE6262"/>
<stop offset="1" stop-color="#FFB88C"/>
</linearGradient>
<linearGradient id="paint20_linear_4080_76" x1="95.6311" y1="95.498" x2="13.1284" y2="127.608" gradientUnits="userSpaceOnUse">
<stop stop-color="#DE6262"/>
<stop offset="1" stop-color="#FFB88C"/>
</linearGradient>
<linearGradient id="paint21_linear_4080_76" x1="95.6311" y1="95.498" x2="13.1284" y2="127.608" gradientUnits="userSpaceOnUse">
<stop stop-color="#DE6262"/>
<stop offset="1" stop-color="#FFB88C"/>
</linearGradient>
<linearGradient id="paint22_linear_4080_76" x1="95.6311" y1="95.498" x2="13.1284" y2="127.608" gradientUnits="userSpaceOnUse">
<stop stop-color="#DE6262"/>
<stop offset="1" stop-color="#FFB88C"/>
</linearGradient>
<linearGradient id="paint23_linear_4080_76" x1="95.6311" y1="95.498" x2="13.1284" y2="127.608" gradientUnits="userSpaceOnUse">
<stop stop-color="#DE6262"/>
<stop offset="1" stop-color="#FFB88C"/>
</linearGradient>
<linearGradient id="paint24_linear_4080_76" x1="95.6311" y1="95.498" x2="13.1284" y2="127.608" gradientUnits="userSpaceOnUse">
<stop stop-color="#DE6262"/>
<stop offset="1" stop-color="#FFB88C"/>
</linearGradient>
<linearGradient id="paint25_linear_4080_76" x1="95.6311" y1="95.498" x2="13.1284" y2="127.608" gradientUnits="userSpaceOnUse">
<stop stop-color="#DE6262"/>
<stop offset="1" stop-color="#FFB88C"/>
</linearGradient>
<linearGradient id="paint26_linear_4080_76" x1="95.6311" y1="95.498" x2="13.1284" y2="127.608" gradientUnits="userSpaceOnUse">
<stop stop-color="#DE6262"/>
<stop offset="1" stop-color="#FFB88C"/>
</linearGradient>
<linearGradient id="paint27_linear_4080_76" x1="95.6311" y1="95.498" x2="13.1284" y2="127.608" gradientUnits="userSpaceOnUse">
<stop stop-color="#DE6262"/>
<stop offset="1" stop-color="#FFB88C"/>
</linearGradient>
</defs>
</svg>
