<svg width="120" height="59" viewBox="0 0 120 59" fill="none" xmlns="../../../../../../external.html?link=http://www.w3.org/2000/svg">
<path d="M10.6508 4.53298C3.42463 5.90615 -1.44683 12.9681 1.41608 19.7435C5.49019 29.3853 11.9386 37.9248 20.2498 44.5163C32.0662 53.8877 46.8594 58.6959 61.9276 58.0628C76.9958 57.4297 91.3335 51.3975 102.322 41.0679C110.051 33.8025 115.761 24.7522 119.011 14.8026C121.296 7.81091 115.849 1.18253 108.533 0.420358C101.218 -0.34181 94.8708 5.18718 91.5278 11.739C89.649 15.4214 87.1385 18.7836 84.0784 21.6601C77.7485 27.6104 69.4894 31.0852 60.8094 31.4499C52.1295 31.8146 43.608 29.0448 36.8013 23.6465C33.5107 21.0368 30.727 17.897 28.5459 14.3853C24.6651 8.13693 17.8769 3.15982 10.6508 4.53298Z" fill="white"/>
</svg>
