<svg width="100" height="190" viewBox="0 0 100 190" fill="none" xmlns="../../../../../external.html?link=http://www.w3.org/2000/svg">
<path d="M10 5C10 7.76142 7.76142 10 5 10C2.23858 10 0 7.76142 0 5C0 2.23858 2.23858 0 5 0C7.76142 0 10 2.23858 10 5Z" fill="white"/>
<path d="M40 5C40 7.76142 37.7614 10 35 10C32.2386 10 30 7.76142 30 5C30 2.23858 32.2386 0 35 0C37.7614 0 40 2.23858 40 5Z" fill="white"/>
<path d="M70 5C70 7.76142 67.7614 10 65 10C62.2386 10 60 7.76142 60 5C60 2.23858 62.2386 0 65 0C67.7614 0 70 2.23858 70 5Z" fill="white"/>
<path d="M100 5C100 7.76142 97.7614 10 95 10C92.2386 10 90 7.76142 90 5C90 2.23858 92.2386 0 95 0C97.7614 0 100 2.23858 100 5Z" fill="white"/>
<path d="M10 35C10 37.7614 7.76142 40 5 40C2.23858 40 0 37.7614 0 35C0 32.2386 2.23858 30 5 30C7.76142 30 10 32.2386 10 35Z" fill="white"/>
<path d="M40 35C40 37.7614 37.7614 40 35 40C32.2386 40 30 37.7614 30 35C30 32.2386 32.2386 30 35 30C37.7614 30 40 32.2386 40 35Z" fill="white"/>
<path d="M70 35C70 37.7614 67.7614 40 65 40C62.2386 40 60 37.7614 60 35C60 32.2386 62.2386 30 65 30C67.7614 30 70 32.2386 70 35Z" fill="white"/>
<path d="M100 35C100 37.7614 97.7614 40 95 40C92.2386 40 90 37.7614 90 35C90 32.2386 92.2386 30 95 30C97.7614 30 100 32.2386 100 35Z" fill="white"/>
<path d="M10 65C10 67.7614 7.76142 70 5 70C2.23858 70 0 67.7614 0 65C0 62.2386 2.23858 60 5 60C7.76142 60 10 62.2386 10 65Z" fill="white"/>
<path d="M40 65C40 67.7614 37.7614 70 35 70C32.2386 70 30 67.7614 30 65C30 62.2386 32.2386 60 35 60C37.7614 60 40 62.2386 40 65Z" fill="white"/>
<path d="M70 65C70 67.7614 67.7614 70 65 70C62.2386 70 60 67.7614 60 65C60 62.2386 62.2386 60 65 60C67.7614 60 70 62.2386 70 65Z" fill="white"/>
<path d="M100 65C100 67.7614 97.7614 70 95 70C92.2386 70 90 67.7614 90 65C90 62.2386 92.2386 60 95 60C97.7614 60 100 62.2386 100 65Z" fill="white"/>
<path d="M10 95C10 97.7614 7.76142 100 5 100C2.23858 100 0 97.7614 0 95C0 92.2386 2.23858 90 5 90C7.76142 90 10 92.2386 10 95Z" fill="white"/>
<path d="M40 95C40 97.7614 37.7614 100 35 100C32.2386 100 30 97.7614 30 95C30 92.2386 32.2386 90 35 90C37.7614 90 40 92.2386 40 95Z" fill="white"/>
<path d="M70 95C70 97.7614 67.7614 100 65 100C62.2386 100 60 97.7614 60 95C60 92.2386 62.2386 90 65 90C67.7614 90 70 92.2386 70 95Z" fill="white"/>
<path d="M100 95C100 97.7614 97.7614 100 95 100C92.2386 100 90 97.7614 90 95C90 92.2386 92.2386 90 95 90C97.7614 90 100 92.2386 100 95Z" fill="white"/>
<path d="M10 125C10 127.761 7.76142 130 5 130C2.23858 130 0 127.761 0 125C0 122.239 2.23858 120 5 120C7.76142 120 10 122.239 10 125Z" fill="white"/>
<path d="M40 125C40 127.761 37.7614 130 35 130C32.2386 130 30 127.761 30 125C30 122.239 32.2386 120 35 120C37.7614 120 40 122.239 40 125Z" fill="white"/>
<path d="M70 125C70 127.761 67.7614 130 65 130C62.2386 130 60 127.761 60 125C60 122.239 62.2386 120 65 120C67.7614 120 70 122.239 70 125Z" fill="white"/>
<path d="M100 125C100 127.761 97.7614 130 95 130C92.2386 130 90 127.761 90 125C90 122.239 92.2386 120 95 120C97.7614 120 100 122.239 100 125Z" fill="white"/>
<path d="M10 155C10 157.761 7.76142 160 5 160C2.23858 160 0 157.761 0 155C0 152.239 2.23858 150 5 150C7.76142 150 10 152.239 10 155Z" fill="white"/>
<path d="M40 155C40 157.761 37.7614 160 35 160C32.2386 160 30 157.761 30 155C30 152.239 32.2386 150 35 150C37.7614 150 40 152.239 40 155Z" fill="white"/>
<path d="M70 155C70 157.761 67.7614 160 65 160C62.2386 160 60 157.761 60 155C60 152.239 62.2386 150 65 150C67.7614 150 70 152.239 70 155Z" fill="white"/>
<path d="M100 155C100 157.761 97.7614 160 95 160C92.2386 160 90 157.761 90 155C90 152.239 92.2386 150 95 150C97.7614 150 100 152.239 100 155Z" fill="white"/>
<path d="M10 185C10 187.761 7.76142 190 5 190C2.23858 190 0 187.761 0 185C0 182.239 2.23858 180 5 180C7.76142 180 10 182.239 10 185Z" fill="white"/>
<path d="M40 185C40 187.761 37.7614 190 35 190C32.2386 190 30 187.761 30 185C30 182.239 32.2386 180 35 180C37.7614 180 40 182.239 40 185Z" fill="white"/>
<path d="M70 185C70 187.761 67.7614 190 65 190C62.2386 190 60 187.761 60 185C60 182.239 62.2386 180 65 180C67.7614 180 70 182.239 70 185Z" fill="white"/>
<path d="M100 185C100 187.761 97.7614 190 95 190C92.2386 190 90 187.761 90 185C90 182.239 92.2386 180 95 180C97.7614 180 100 182.239 100 185Z" fill="white"/>
</svg>
