<svg width="170" height="170" viewBox="0 0 170 170" fill="none" xmlns="../../../../../external.html?link=http://www.w3.org/2000/svg">
<path opacity="0.4" d="M84 42.5C84 65.4198 65.4198 84 42.5 84C19.5802 84 1 65.4198 1 42.5C1 19.5802 19.5802 1 42.5 1C65.4198 1 84 19.5802 84 42.5ZM127.5 169C104.58 169 86 150.42 86 127.5C86 104.58 104.58 86 127.5 86C150.42 86 169 104.58 169 127.5C169 150.42 150.42 169 127.5 169ZM127.5 84C104.58 84 86 65.4198 86 42.5C86 19.5802 104.58 1 127.5 1C150.42 1 169 19.5802 169 42.5C169 65.4198 150.42 84 127.5 84ZM84 127.5C84 150.42 65.4198 169 42.5 169C19.5802 169 1 150.42 1 127.5C1 104.58 19.5802 86 42.5 86C65.4198 86 84 104.58 84 127.5Z" stroke="white" stroke-width="2"/>
</svg>
