<svg width="292" height="270" viewBox="0 0 292 270" fill="none" xmlns="../../../../../external.html?link=http://www.w3.org/2000/svg">
<path d="M264.956 269.814C287.387 234.085 296.217 191.48 289.834 149.78C283.451 108.08 262.281 70.0667 230.191 42.6834C198.1 15.3001 157.23 0.373849 115.045 0.630644C72.8596 0.887439 32.1743 16.3101 0.419394 44.0821L37.4271 86.3974C59.0245 67.509 86.6957 57.0196 115.387 56.8449C144.078 56.6703 171.875 66.822 193.701 85.4461C215.527 104.07 229.925 129.924 234.266 158.285C238.607 186.647 232.601 215.624 217.346 239.924L264.956 269.814Z" fill="url(#paint0_linear_4096_1027)"/>
<defs>
<linearGradient id="paint0_linear_4096_1027" x1="274.221" y1="180.787" x2="53.9809" y2="334.327" gradientUnits="userSpaceOnUse">
<stop stop-color="#FF512F"/>
<stop offset="1" stop-color="#DD2476"/>
</linearGradient>
</defs>
</svg>
