<svg width="201" height="198" viewBox="0 0 201 198" fill="none" xmlns="../../../../../external.html?link=http://www.w3.org/2000/svg">
<path d="M119.504 39.039C113.849 34.0353 107.264 30.1945 100.124 27.7359C92.9848 25.2772 85.4309 24.2489 77.894 24.7096C70.3571 25.1703 62.9847 27.111 56.1977 30.4209C49.4108 33.7307 43.3423 38.345 38.3386 44.0002C33.3349 49.6554 29.4941 56.2407 27.0355 63.3802C24.5769 70.5198 23.5485 78.0737 24.0092 85.6106C24.4699 93.1475 26.4106 100.52 29.7205 107.307C33.0304 114.094 37.6447 120.162 43.2998 125.166L81.4021 82.1025L119.504 39.039Z" fill="url(#paint0_linear_4368_4)"/>
<path d="M157.7 72.834C152.045 67.8304 145.459 63.9896 138.32 61.5309C131.18 59.0723 123.626 58.044 116.09 58.5046C108.553 58.9653 101.18 60.906 94.3933 64.2159C87.6064 67.5258 81.5378 72.1401 76.5342 77.7953C71.5305 83.4504 67.6897 90.0358 65.2311 97.1753C62.7724 104.315 61.7441 111.869 62.2048 119.406C62.6655 126.943 64.6062 134.315 67.9161 141.102C71.226 147.889 75.8402 153.957 81.4954 158.961L119.598 115.898L157.7 72.834Z" fill="url(#paint1_linear_4368_4)"/>
<defs>
<linearGradient id="paint0_linear_4368_4" x1="38.3386" y1="44.0002" x2="124.466" y2="120.205" gradientUnits="userSpaceOnUse">
<stop stop-color="#36D1DC"/>
<stop offset="1" stop-color="#5B86E5"/>
</linearGradient>
<linearGradient id="paint1_linear_4368_4" x1="76.5342" y1="77.7952" x2="162.661" y2="154" gradientUnits="userSpaceOnUse">
<stop stop-color="#36D1DC"/>
<stop offset="1" stop-color="#5B86E5"/>
</linearGradient>
</defs>
</svg>
