<svg width="18" height="18" viewBox="0 0 18 18" fill="none" xmlns="../../../../../external.html?link=http://www.w3.org/2000/svg">
<path d="M18 7.5V14.25C17.9988 15.2442 17.6033 16.1973 16.9003 16.9003C16.1973 17.6033 15.2442 17.9988 14.25 18H3.75C2.7558 17.9988 1.80267 17.6033 1.09966 16.9003C0.396661 16.1973 0.00119089 15.2442 0 14.25L0 6C0.00119089 5.0058 0.396661 4.05267 1.09966 3.34966C1.80267 2.64666 2.7558 2.25119 3.75 2.25H9.75C9.94891 2.25 10.1397 2.32902 10.2803 2.46967C10.421 2.61032 10.5 2.80109 10.5 3C10.5 3.19891 10.421 3.38968 10.2803 3.53033C10.1397 3.67098 9.94891 3.75 9.75 3.75H3.75C3.34216 3.75113 2.94234 3.86346 2.59359 4.07491C2.24483 4.28635 1.96035 4.5889 1.77075 4.95L7.4085 10.5885C7.83127 11.0093 8.4035 11.2455 9 11.2455C9.5965 11.2455 10.1687 11.0093 10.5915 10.5885L13.4573 7.725C13.5987 7.58838 13.7882 7.51279 13.9848 7.51449C14.1814 7.5162 14.3696 7.59508 14.5086 7.73414C14.6477 7.87319 14.7265 8.0613 14.7283 8.25795C14.73 8.4546 14.6544 8.64405 14.5177 8.7855L11.652 11.652C10.9479 12.354 9.99425 12.7482 9 12.7482C8.00575 12.7482 7.05207 12.354 6.348 11.652L1.5 6.80325V14.25C1.5 14.8467 1.73705 15.419 2.15901 15.841C2.58097 16.2629 3.15326 16.5 3.75 16.5H14.25C14.8467 16.5 15.419 16.2629 15.841 15.841C16.2629 15.419 16.5 14.8467 16.5 14.25V7.5C16.5 7.30109 16.579 7.11032 16.7197 6.96967C16.8603 6.82902 17.0511 6.75 17.25 6.75C17.4489 6.75 17.6397 6.82902 17.7803 6.96967C17.921 7.11032 18 7.30109 18 7.5ZM12.75 3.75H14.25V5.25C14.25 5.44891 14.329 5.63968 14.4697 5.78033C14.6103 5.92098 14.8011 6 15 6C15.1989 6 15.3897 5.92098 15.5303 5.78033C15.671 5.63968 15.75 5.44891 15.75 5.25V3.75H17.25C17.4489 3.75 17.6397 3.67098 17.7803 3.53033C17.921 3.38968 18 3.19891 18 3C18 2.80109 17.921 2.61032 17.7803 2.46967C17.6397 2.32902 17.4489 2.25 17.25 2.25H15.75V0.75C15.75 0.551088 15.671 0.360322 15.5303 0.21967C15.3897 0.0790176 15.1989 0 15 0C14.8011 0 14.6103 0.0790176 14.4697 0.21967C14.329 0.360322 14.25 0.551088 14.25 0.75V2.25H12.75C12.5511 2.25 12.3603 2.32902 12.2197 2.46967C12.079 2.61032 12 2.80109 12 3C12 3.19891 12.079 3.38968 12.2197 3.53033C12.3603 3.67098 12.5511 3.75 12.75 3.75Z" fill="white"/>
</svg>
